<svg width="39" height="40" viewBox="0 0 39 40" fill="none" xmlns="http://www.w3.org/2000/svg">
<g clip-path="url(#clip0_186_11)">
<path fill-rule="evenodd" clip-rule="evenodd" d="M19.5 40C30.2695 40 39 31.0457 39 20C39 8.95432 30.2695 0 19.5 0C8.73046 0 0 8.95432 0 20C0 31.0457 8.73046 40 19.5 40ZM24.7505 14.768C24.7505 17.8432 22.3199 20.336 19.3217 20.336C16.3234 20.336 13.8928 17.8432 13.8928 14.768C13.8928 11.6929 16.3234 9.2 19.3217 9.2C22.3199 9.2 24.7505 11.6929 24.7505 14.768ZM21.9924 14.768C21.9924 13.2551 20.7967 12.0288 19.3217 12.0288C17.8466 12.0288 16.6509 13.2554 16.6509 14.768C16.6509 16.2809 17.8466 17.5073 19.3217 17.5073C20.7967 17.5073 21.9924 16.2809 21.9924 14.768ZM23.2956 20.7702C24.4239 19.8584 25.2726 20.3837 25.5792 21.0153C26.1136 22.1164 25.51 22.6486 24.1475 23.5457C22.9935 24.3056 21.4116 24.5931 20.3782 24.7024L21.2429 25.5889L24.4419 28.87C24.9278 29.3687 24.9281 30.1769 24.4419 30.6756L24.2953 30.826C23.8091 31.3247 23.0207 31.3247 22.5348 30.826L19.3358 27.5449L16.1367 30.826C15.6505 31.3244 14.8624 31.3247 14.3762 30.826L14.2296 30.6756C13.7434 30.1769 13.7434 29.3683 14.2296 28.87L17.4286 25.5889L18.2905 24.705C17.2577 24.5977 15.6588 24.3115 14.4952 23.5454C13.1327 22.6483 12.5291 22.1164 13.0634 21.0153C13.37 20.3837 14.219 19.8584 15.347 20.7702C16.8718 22.0026 19.3213 22.0026 19.3213 22.0026C19.3213 22.0026 21.7708 22.0026 23.2956 20.7702Z" fill="#FFFF52"/>
</g>
<defs>
<clipPath id="clip0_186_11">
<rect width="39" height="40" fill="white"/>
</clipPath>
</defs>
</svg>
