<svg width="40" height="40" viewBox="0 0 40 40" fill="none" xmlns="http://www.w3.org/2000/svg">
<g clip-path="url(#clip0_186_15)">
<path fill-rule="evenodd" clip-rule="evenodd" d="M20 40C31.0457 40 40 31.0457 40 20C40 8.95432 31.0457 0 20 0C8.95432 0 0 8.95432 0 20C0 31.0457 8.95432 40 20 40ZM10 13.6C10.1624 21.3951 14.0599 26.0797 20.8931 26.0797H21.2805V21.62C23.7914 21.8698 25.6901 23.7062 26.4521 26.0797H30C29.0256 22.5319 26.4646 20.5706 24.8656 19.8211C26.4646 18.8967 28.7132 16.6481 29.2504 13.6H26.0273C25.3277 16.0734 23.2543 18.322 21.2805 18.5344V13.6H18.0574V22.2446C16.0586 21.7449 13.5353 19.3214 13.4229 13.6H10Z" fill="#FFFF52"/>
</g>
<defs>
<clipPath id="clip0_186_15">
<rect width="40" height="40" fill="white"/>
</clipPath>
</defs>
</svg>
